<svg xmlns="http://www.w3.org/2000/svg" viewBox="0 0 400 840" preserveAspectRatio="xMidYMid slice">
  <defs>
    <linearGradient id="sky" x1="0" y1="0" x2="0" y2="1">
      <stop offset="0" stop-color="#FBE7E3"/><stop offset="1" stop-color="#F9F1EA"/>
    </linearGradient>
    <linearGradient id="wash" x1="0" y1="0" x2="0" y2="1">
      <stop offset="0" stop-color="#881337" stop-opacity="0"/>
      <stop offset="0.45" stop-color="#E11D48" stop-opacity="0.5"/>
      <stop offset="1" stop-color="#881337" stop-opacity="0.98"/>
    </linearGradient>
  </defs>
  <rect width="400" height="840" fill="url(#sky)"/>
  <g fill="#FFFFFF" opacity="0.6">
    <ellipse cx="92" cy="86" rx="58" ry="15"/><ellipse cx="316" cy="118" rx="46" ry="12"/>
  </g>
  <g opacity="0.4" fill="#C9B4AC">
    <rect x="16" y="200" width="30" height="96"/><rect x="352" y="212" width="26" height="84"/>
  </g>
  <rect x="0" y="296" width="400" height="544" fill="#E7D9CC"/>
  <g>
    <rect x="150" y="252" width="196" height="270" rx="14" fill="#F2F5F8" stroke="#C3CFDA" stroke-width="4"/>
    <rect x="150" y="252" width="196" height="52" rx="14" fill="#E11D48"/>
    <rect x="164" y="266" width="168" height="10" rx="5" fill="#FFFFFF" opacity="0.55"/>
    <rect x="170" y="330" width="156" height="160" rx="6" fill="#DDE6EE"/>
    <g stroke="#B9C7D6" stroke-width="4">
      <line x1="170" y1="383" x2="326" y2="383"/><line x1="248" y1="330" x2="248" y2="490"/>
    </g>
    <rect x="150" y="440" width="196" height="10" fill="#C3CFDA"/>
    <rect x="96" y="330" width="58" height="192" rx="10" fill="#E2725B"/>
    <rect x="108" y="344" width="34" height="40" rx="6" fill="#F6D9CE"/>
  </g>
  <g fill="#C9A15C" stroke="#A87F42" stroke-width="4">
    <rect x="52" y="452" width="84" height="66" rx="6"/>
    <rect x="64" y="404" width="60" height="52" rx="6"/>
    <rect x="230" y="530" width="70" height="52" rx="6"/>
  </g>
  <g stroke="#A87F42" stroke-width="3" opacity="0.7">
    <line x1="52" y1="485" x2="136" y2="485"/><line x1="230" y1="556" x2="300" y2="556"/>
  </g>
  <g>
    <circle cx="128" cy="560" r="34" fill="#3F4652"/><circle cx="128" cy="560" r="15" fill="#B9C1CD"/>
    <circle cx="292" cy="560" r="34" fill="#3F4652"/><circle cx="292" cy="560" r="15" fill="#B9C1CD"/>
  </g>
  <g transform="translate(64 392)">
    <circle cx="0" cy="0" r="17" fill="#D69A72"/>
    <path d="M-16 6 Q0 -18 16 6 L16 14 L-16 14 Z" fill="#0F766E"/>
    <rect x="-12" y="14" width="24" height="46" rx="10" fill="#0F766E"/>
    <rect x="-13" y="20" width="26" height="11" rx="5" fill="#14B8A6"/>
  </g>
  <rect y="300" width="400" height="540" fill="url(#wash)"/>
</svg>
